<svg width="381.5999999999999" height="129.66356628203891" viewBox="0 0 335.06213224007803 113.85050050396399" class="looka-1j8o68f"><defs id="SvgjsDefs6076"></defs><g id="SvgjsG6077" featurekey="VIZwhN-0" transform="matrix(11.200703570274227,0,0,11.200703570274227,139.5497425862064,-10.450257413793599)" fill="#606060"><title xmlns="http://www.w3.org/2000/svg">maze</title><g xmlns="http://www.w3.org/2000/svg"><polygon points="2.77 1.478 3.325 1.478 3.325 1.285 2.964 1.285 2.964 0.933 2.395 0.933 2.395 1.126 2.77 1.126 2.77 1.478"></polygon><polygon points="2.396 1.93 2.59 1.93 2.59 1.361 2.237 1.361 2.237 1 2.044 1 2.044 1.555 2.396 1.555 2.396 1.93"></polygon><polygon points="3.164 2.205 3.358 2.205 3.358 1.845 3.71 1.845 3.71 1.276 3.516 1.276 3.516 1.651 3.164 1.651 3.164 2.205"></polygon><polygon points="2.763 2.059 2.413 2.059 2.403 2.498 2.597 2.502 2.603 2.253 2.957 2.253 2.957 1.684 2.763 1.684 2.763 2.059"></polygon><polygon points="4.067 2.395 3.874 2.395 3.874 2.77 3.522 2.77 3.522 3.325 3.715 3.325 3.715 2.964 4.067 2.964 4.067 2.395"></polygon><polygon points="3.513 2.396 3.07 2.396 3.07 2.59 3.707 2.59 3.707 2.237 4 2.237 4 2.044 3.513 2.044 3.513 2.396"></polygon><polygon points="3.724 3.71 3.724 3.516 3.349 3.516 3.349 3.083 2.795 3.083 2.795 3.277 3.155 3.277 3.155 3.71 3.724 3.71"></polygon><polygon points="2.747 2.503 2.747 2.942 3.316 2.942 3.316 2.748 2.941 2.748 2.941 2.503 2.747 2.503"></polygon><polygon points="2.605 4.067 2.605 3.874 2.23 3.874 2.23 3.522 1.675 3.522 1.675 3.715 2.036 3.715 2.036 4.067 2.605 4.067"></polygon><polygon points="2.956 4 2.956 3.445 2.604 3.445 2.604 3.07 2.41 3.07 2.41 3.639 2.763 3.639 2.763 4 2.956 4"></polygon><polygon points="1.484 3.349 1.836 3.349 1.836 2.795 1.642 2.795 1.642 3.155 1.29 3.155 1.29 3.724 1.484 3.724 1.484 3.349"></polygon><polygon points="2.043 3.316 2.237 3.316 2.237 2.876 2.6 2.876 2.6 2.682 2.043 2.682 2.043 3.316"></polygon><polygon points="1.126 2.23 1.497 2.23 1.497 1.675 1.304 1.675 1.304 2.036 0.933 2.036 0.933 2.605 1.126 2.605 1.126 2.23"></polygon><polygon points="1.304 2.763 1 2.763 1 2.956 1.497 2.956 1.497 2.604 1.93 2.604 1.93 2.41 1.304 2.41 1.304 2.763"></polygon><polygon points="1.651 1.909 2.205 1.909 2.205 1.716 1.845 1.716 1.845 1.29 1.276 1.29 1.276 1.484 1.651 1.484 1.651 1.909"></polygon><polygon points="1.684 2.237 2.059 2.237 2.059 2.492 2.253 2.492 2.253 2.043 1.684 2.043 1.684 2.237"></polygon></g></g><g id="SvgjsG6078" featurekey="WvMr3I-0" transform="matrix(0.3745518458660112,0,0,0.3745518458660112,54.000000267900354,106.26957051496308)" fill="#111111"><path d="M6.5 4.9 c4.18 0 7.56 3.38 7.56 7.54 c0 4.18 -3.38 7.56 -7.56 7.56 l-4.36 0 c-1.18 0 -2.14 -0.96 -2.14 -2.14 l0 -10.68 c0 -0.32 0.28 -0.6 0.6 -0.6 c0.34 0 0.62 0.28 0.62 0.6 l0 10.68 c0 0.52 0.4 0.92 0.92 0.92 l4.36 0 c3.5 0 6.34 -2.84 6.34 -6.34 c0 -3.48 -2.84 -6.34 -6.34 -6.34 c-0.32 0 -0.6 -0.26 -0.6 -0.6 s0.28 -0.6 0.6 -0.6 z M2.3 6.58 l4.2 0 c3.24 0 5.88 2.64 5.88 5.86 c0 3.24 -2.64 5.88 -5.88 5.88 c-0.32 0 -0.6 -0.28 -0.6 -0.62 s0.28 -0.6 0.6 -0.6 c2.56 0 4.66 -2.1 4.66 -4.66 s-2.1 -4.64 -4.66 -4.64 l-3.58 0 l0 9.9 c0 0.34 -0.28 0.62 -0.62 0.62 s-0.6 -0.28 -0.6 -0.62 l0 -10.52 c0 -0.32 0.26 -0.6 0.6 -0.6 z M35.275 4.880000000000001 c0.8 0 1.46 0.66 1.46 1.48 l0 13.04 c0 0.32 -0.26 0.6 -0.6 0.6 s-0.62 -0.28 -0.62 -0.6 l0 -13.04 c0 -0.14 -0.1 -0.26 -0.24 -0.26 s-0.26 0.12 -0.26 0.26 l0 6.08 c0 0.34 -0.28 0.6 -0.62 0.6 c-0.32 0 -0.6 -0.26 -0.6 -0.6 l0 -6.08 c0 -0.82 0.66 -1.48 1.48 -1.48 z M64.17 4.619999999999999 l0.06 0 c0.78 0.02 1.44 0.68 1.44 1.48 c0 0.84 -0.66 1.48 -1.5 1.48 c-1.3 0 -2.52 0.52 -3.42 1.42 s-1.42 2.12 -1.42 3.42 c0 1.32 0.52 2.54 1.42 3.44 s2.12 1.42 3.42 1.42 c0.34 0 0.6 0.28 0.6 0.6 c0 0.34 -0.26 0.6 -0.6 0.6 c-1.6 0 -3.14 -0.62 -4.26 -1.78 c-1.16 -1.12 -1.78 -2.66 -1.78 -4.28 c0 -1.6 0.62 -3.14 1.78 -4.26 c1.12 -1.16 2.66 -1.78 4.26 -1.78 c0.14 0 0.32 -0.06 0.32 -0.28 c0 -0.2 -0.14 -0.28 -0.32 -0.28 c-3.62 0 -6.58 2.98 -6.58 6.6 c0 3.64 2.96 6.6 6.58 6.6 c3.44 0 6.56 -2.86 6.56 -6 l-5.7 0 c-0.12 0 -0.26 0.14 -0.26 0.26 c0 0.14 0.14 0.26 0.26 0.26 l4.24 0 c0.32 0 0.6 0.28 0.6 0.6 c0 0.34 -0.28 0.6 -0.6 0.6 l-4.28 0 c-0.78 -0.02 -1.4 -0.66 -1.4 -1.46 c0 -0.78 0.64 -1.42 1.44 -1.44 l6.36 0 c0.34 0 0.6 0.26 0.6 0.58 c0 4.3 -3.52 7.82 -7.82 7.82 c-4.28 0 -7.8 -3.52 -7.8 -7.82 c0 -4.28 3.52 -7.8 7.8 -7.8 z M93.205 4.880000000000001 c0.8 0 1.46 0.66 1.46 1.48 l0 13.04 c0 0.32 -0.26 0.6 -0.6 0.6 s-0.62 -0.28 -0.62 -0.6 l0 -13.04 c0 -0.14 -0.1 -0.26 -0.24 -0.26 s-0.26 0.12 -0.26 0.26 l0 6.08 c0 0.34 -0.28 0.6 -0.62 0.6 c-0.32 0 -0.6 -0.26 -0.6 -0.6 l0 -6.08 c0 -0.82 0.66 -1.48 1.48 -1.48 z M114.99999999999999 4.880000000000001 l12.86 0 c0.32 0 0.6 0.28 0.6 0.6 c0 0.34 -0.28 0.62 -0.6 0.62 l-12.86 0 c-0.32 0 -0.6 -0.28 -0.6 -0.62 c0 -0.32 0.28 -0.6 0.6 -0.6 z M114.99999999999999 6.6 l4.4 0 c0.98 0 1.78 0.8 1.78 1.78 l0 11.02 c0 0.32 -0.28 0.6 -0.62 0.6 c-0.32 0 -0.6 -0.28 -0.6 -0.6 l0 -11.02 c0 -0.3 -0.26 -0.56 -0.56 -0.56 l-4.4 0 c-0.32 0 -0.6 -0.26 -0.6 -0.6 s0.28 -0.62 0.6 -0.62 z M123.46 6.6 l4.4 0 c0.32 0 0.6 0.28 0.6 0.62 s-0.28 0.6 -0.6 0.6 l-4.4 0 c-0.3 0 -0.56 0.26 -0.56 0.56 l0 11.02 c0 0.32 -0.26 0.6 -0.6 0.6 s-0.62 -0.28 -0.62 -0.6 l0 -11.02 c0 -0.98 0.8 -1.78 1.78 -1.78 z M156.135 4.880000000000001 c1.46 0 2.76 0.9 3.28 2.26 l5.02 12.02 c0.14 0.32 -0.02 0.66 -0.32 0.8 c-0.32 0.12 -0.68 -0.02 -0.8 -0.34 l-5.06 -12.1 c-0.36 -0.86 -1.2 -1.42 -2.12 -1.42 c-0.94 0 -1.76 0.56 -2.12 1.42 l-4.56 10.9 c-0.06 0.14 -0.02 0.3 0.12 0.36 s0.28 0 0.34 -0.16 l4.56 -10.88 c0.28 -0.66 0.94 -1.08 1.66 -1.08 s1.38 0.42 1.66 1.1 l2.36 5.62 c0.22 0.52 -0.1 0.84 -0.58 0.84 l-4.8 0 c-0.34 0 -0.62 -0.28 -0.62 -0.62 s0.28 -0.6 0.62 -0.6 l3.9 0 l-2 -4.76 c-0.08 -0.22 -0.28 -0.38 -0.54 -0.38 s-0.46 0.16 -0.54 0.38 l-4.56 10.84 c-0.3 0.76 -1.16 1.12 -1.92 0.82 c-0.76 -0.32 -1.12 -1.18 -0.82 -1.92 l4.56 -10.84 c0.52 -1.36 1.82 -2.26 3.28 -2.26 z M185.70999999999998 4.880000000000001 c0.8 0 1.46 0.66 1.46 1.46 l0 10.16 c0 0.3 0.26 0.56 0.56 0.56 l6.02 0 c0.82 0 1.48 0.66 1.48 1.46 c0 0.82 -0.66 1.48 -1.48 1.48 l-6.02 0 c-0.34 0 -0.6 -0.28 -0.6 -0.62 c0 -0.32 0.26 -0.6 0.6 -0.6 l6.02 0 c0.14 0 0.26 -0.12 0.26 -0.26 s-0.12 -0.24 -0.26 -0.24 l-6.02 0 c-0.98 0 -1.78 -0.8 -1.78 -1.78 l0 -10.14 c0 -0.14 -0.1 -0.26 -0.24 -0.26 c-0.16 0 -0.26 0.12 -0.26 0.26 l0 6.06 c0 0.34 -0.28 0.62 -0.62 0.62 c-0.32 0 -0.6 -0.28 -0.6 -0.62 l0 -6.08 c0 -0.8 0.66 -1.46 1.48 -1.46 z M247.14 4.880000000000001 c1.46 0 2.76 0.9 3.28 2.26 l5.02 12.02 c0.14 0.32 -0.02 0.66 -0.32 0.8 c-0.32 0.12 -0.68 -0.02 -0.8 -0.34 l-5.06 -12.1 c-0.36 -0.86 -1.2 -1.42 -2.12 -1.42 c-0.94 0 -1.76 0.56 -2.12 1.42 l-4.56 10.9 c-0.06 0.14 -0.02 0.3 0.12 0.36 s0.28 0 0.34 -0.16 l4.56 -10.88 c0.28 -0.66 0.94 -1.08 1.66 -1.08 s1.38 0.42 1.66 1.1 l2.36 5.62 c0.22 0.52 -0.1 0.84 -0.58 0.84 l-4.8 0 c-0.34 0 -0.62 -0.28 -0.62 -0.62 s0.28 -0.6 0.62 -0.6 l3.9 0 l-2 -4.76 c-0.08 -0.22 -0.28 -0.38 -0.54 -0.38 s-0.46 0.16 -0.54 0.38 l-4.56 10.84 c-0.3 0.76 -1.16 1.12 -1.92 0.82 c-0.76 -0.32 -1.12 -1.18 -0.82 -1.92 l4.56 -10.84 c0.52 -1.36 1.82 -2.26 3.28 -2.26 z M275.83500000000004 4.880000000000001 l7.28 0 c2.48 0.02 4.48 2.06 4.48 4.54 c0 2.32 -1.78 4.24 -4.04 4.48 l3.62 3.6 c0.54 0.54 0.54 1.54 0 2.08 s-1.48 0.58 -2.04 0.02 c-0.52 -0.54 -2.52 -2.52 -2.52 -2.52 c-0.24 -0.24 -0.24 -0.62 0 -0.86 s0.62 -0.24 0.86 0 l2.48 2.48 c0.1 0.1 0.26 0.12 0.36 0.02 s0.12 -0.24 0 -0.36 l-4.64 -4.62 c-0.12 -0.12 -0.18 -0.26 -0.18 -0.42 c0 -0.34 0.28 -0.62 0.62 -0.62 l0.96 0 c1.82 0 3.32 -1.48 3.32 -3.3 s-1.5 -3.3 -3.32 -3.3 l-6.62 0 l0 3.3 c0 0.34 -0.28 0.6 -0.62 0.6 s-0.6 -0.26 -0.6 -0.6 l0 -3.92 c0 -0.32 0.26 -0.6 0.6 -0.6 z M283.095 6.6 c1.54 0 2.8 1.26 2.8 2.8 s-1.26 2.78 -2.8 2.78 l-3.34 0 c-1.82 0 -3.3 1.48 -3.3 3.3 l0 3.92 c0 0.32 -0.28 0.6 -0.62 0.6 s-0.6 -0.28 -0.6 -0.6 l0 -3.92 c0 -2.5 2.02 -4.52 4.52 -4.52 l3.34 0 c0.88 0 1.58 -0.7 1.58 -1.56 c0 -0.88 -0.7 -1.58 -1.58 -1.58 c-0.34 0 -0.6 -0.26 -0.6 -0.6 s0.26 -0.62 0.6 -0.62 z M315.03000000000003 4.619999999999999 c2.1 0 4.06 0.82 5.52 2.28 c0.24 0.24 0.24 0.62 0 0.86 c-0.22 0.24 -0.62 0.24 -0.84 0 c-1.26 -1.24 -2.9 -1.92 -4.68 -1.94 c-3.62 0 -6.6 2.98 -6.6 6.6 c0 3.64 2.98 6.62 6.6 6.62 c1.78 0 3.44 -0.7 4.68 -1.94 c0.14 -0.14 0.08 -0.3 0 -0.38 c-0.1 -0.1 -0.26 -0.12 -0.38 0 c-1.16 1.16 -2.68 1.76 -4.3 1.76 c-3.34 0 -6.04 -2.7 -6.04 -6.06 c0 -1.6 0.62 -3.12 1.76 -4.28 c0.24 -0.22 0.62 -0.22 0.86 0 c0.24 0.24 0.24 0.62 0 0.86 c-0.92 0.92 -1.42 2.14 -1.42 3.42 c0 2.68 2.18 4.86 4.84 4.86 c1.3 0 2.52 -0.5 3.44 -1.42 c0.62 -0.62 1.5 -0.6 2.1 0 c0.64 0.64 0.62 1.48 0 2.1 c-1.48 1.48 -3.44 2.28 -5.54 2.28 c-4.3 0 -7.8 -3.5 -7.8 -7.82 c0 -4.3 3.5 -7.8 7.8 -7.8 z M341.38500000000005 4.880000000000001 c0.34 0 0.62 0.28 0.62 0.62 l0 13.9 c0 0.34 -0.28 0.6 -0.62 0.6 c-0.32 0 -0.6 -0.26 -0.6 -0.6 l0 -13.9 c0 -0.34 0.28 -0.62 0.6 -0.62 z M353.70500000000004 4.880000000000001 c0.34 0 0.6 0.28 0.6 0.62 l0 5.78 c0 0.96 -0.76 1.74 -1.72 1.78 l0 6.34 c0 0.34 -0.28 0.6 -0.6 0.6 c-0.34 0 -0.62 -0.26 -0.62 -0.6 l0 -6.34 l-7.08 0 c-0.3 0 -0.56 0.24 -0.56 0.56 l0 5.78 c0 0.34 -0.26 0.6 -0.6 0.6 s-0.62 -0.26 -0.62 -0.6 l0 -5.78 c0 -0.98 0.8 -1.78 1.78 -1.78 l7.08 0 l0 -6.34 c0 -0.34 0.28 -0.62 0.62 -0.62 c0.32 0 0.6 0.28 0.6 0.62 l0 6.34 c0.28 -0.04 0.5 -0.28 0.5 -0.56 l0 -5.78 c0 -0.34 0.28 -0.62 0.62 -0.62 z M375.52000000000004 4.880000000000001 c0.8 0 1.46 0.66 1.46 1.48 l0 13.04 c0 0.32 -0.26 0.6 -0.6 0.6 s-0.62 -0.28 -0.62 -0.6 l0 -13.04 c0 -0.14 -0.1 -0.26 -0.24 -0.26 s-0.26 0.12 -0.26 0.26 l0 6.08 c0 0.34 -0.28 0.6 -0.62 0.6 c-0.32 0 -0.6 -0.26 -0.6 -0.6 l0 -6.08 c0 -0.82 0.66 -1.48 1.48 -1.48 z M397.31500000000005 4.880000000000001 l12.86 0 c0.32 0 0.6 0.28 0.6 0.6 c0 0.34 -0.28 0.62 -0.6 0.62 l-12.86 0 c-0.32 0 -0.6 -0.28 -0.6 -0.62 c0 -0.32 0.28 -0.6 0.6 -0.6 z M397.31500000000005 6.6 l4.4 0 c0.98 0 1.78 0.8 1.78 1.78 l0 11.02 c0 0.32 -0.28 0.6 -0.62 0.6 c-0.32 0 -0.6 -0.28 -0.6 -0.6 l0 -11.02 c0 -0.3 -0.26 -0.56 -0.56 -0.56 l-4.4 0 c-0.32 0 -0.6 -0.26 -0.6 -0.6 s0.28 -0.62 0.6 -0.62 z M405.77500000000003 6.6 l4.4 0 c0.32 0 0.6 0.28 0.6 0.62 s-0.28 0.6 -0.6 0.6 l-4.4 0 c-0.3 0 -0.56 0.26 -0.56 0.56 l0 11.02 c0 0.32 -0.26 0.6 -0.6 0.6 s-0.62 -0.28 -0.62 -0.6 l0 -11.02 c0 -0.98 0.8 -1.78 1.78 -1.78 z M434.01000000000005 4.880000000000001 l7.42 0 c0.8 0 1.46 0.66 1.46 1.46 s-0.62 1.48 -1.42 1.48 l-7.46 0 c-0.3 0 -0.56 0.24 -0.56 0.56 c0 0.3 0.26 0.56 0.56 0.56 c0.34 0 0.62 0.26 0.62 0.6 s-0.28 0.62 -0.62 0.62 c-0.98 0 -1.76 -0.8 -1.76 -1.78 s0.78 -1.78 1.76 -1.78 l7.42 0 c0.14 0 0.24 -0.12 0.24 -0.26 s-0.1 -0.24 -0.24 -0.24 l-7.42 0 c-1.26 0 -2.28 1.02 -2.28 2.28 s1.02 2.28 2.28 2.28 l5.38 0 c0.98 0 1.78 0.8 1.78 1.8 c0 0.98 -0.8 1.76 -1.78 1.76 l-5.38 0 c-1.26 0 -2.28 1.02 -2.28 2.28 s1.02 2.28 2.28 2.28 l8.26 0 c0.34 0 0.62 0.28 0.62 0.62 s-0.28 0.6 -0.62 0.6 l-8.26 0 c-1.94 0 -3.5 -1.56 -3.5 -3.5 c0 -1.92 1.56 -3.5 3.5 -3.5 l5.38 0 c0.32 0 0.56 -0.24 0.56 -0.54 c0 -0.34 -0.24 -0.58 -0.56 -0.58 l-5.38 0 c-1.92 0 -3.5 -1.58 -3.5 -3.5 c0 -1.94 1.58 -3.5 3.5 -3.5 z M434.01000000000005 14.74 l5.38 0 c0.34 0 0.62 0.26 0.62 0.6 s-0.28 0.62 -0.62 0.62 l-5.38 0 c-0.3 0 -0.56 0.24 -0.56 0.54 c0 0.32 0.26 0.56 0.56 0.56 c0.34 0 0.6 0.28 0.6 0.62 c0 0.32 -0.26 0.6 -0.6 0.6 c-0.98 0 -1.78 -0.8 -1.78 -1.78 s0.8 -1.76 1.78 -1.76 z M470.32500000000005 4.619999999999999 c2.1 0 4.06 0.82 5.52 2.28 c0.24 0.24 0.24 0.62 0 0.86 c-0.22 0.24 -0.62 0.24 -0.84 0 c-1.26 -1.24 -2.9 -1.92 -4.68 -1.94 c-3.62 0 -6.6 2.98 -6.6 6.6 c0 3.64 2.98 6.62 6.6 6.62 c1.78 0 3.44 -0.7 4.68 -1.94 c0.14 -0.14 0.08 -0.3 0 -0.38 c-0.1 -0.1 -0.26 -0.12 -0.38 0 c-1.16 1.16 -2.68 1.76 -4.3 1.76 c-3.34 0 -6.04 -2.7 -6.04 -6.06 c0 -1.6 0.62 -3.12 1.76 -4.28 c0.24 -0.22 0.62 -0.22 0.86 0 c0.24 0.24 0.24 0.62 0 0.86 c-0.92 0.92 -1.42 2.14 -1.42 3.42 c0 2.68 2.18 4.86 4.84 4.86 c1.3 0 2.52 -0.5 3.44 -1.42 c0.62 -0.62 1.5 -0.6 2.1 0 c0.64 0.64 0.62 1.48 0 2.1 c-1.48 1.48 -3.44 2.28 -5.54 2.28 c-4.3 0 -7.8 -3.5 -7.8 -7.82 c0 -4.3 3.5 -7.8 7.8 -7.8 z M496.68000000000006 4.880000000000001 l12.86 0 c0.32 0 0.6 0.28 0.6 0.6 c0 0.34 -0.28 0.62 -0.6 0.62 l-12.86 0 c-0.32 0 -0.6 -0.28 -0.6 -0.62 c0 -0.32 0.28 -0.6 0.6 -0.6 z M496.68000000000006 6.6 l4.4 0 c0.98 0 1.78 0.8 1.78 1.78 l0 11.02 c0 0.32 -0.28 0.6 -0.62 0.6 c-0.32 0 -0.6 -0.28 -0.6 -0.6 l0 -11.02 c0 -0.3 -0.26 -0.56 -0.56 -0.56 l-4.4 0 c-0.32 0 -0.6 -0.26 -0.6 -0.6 s0.28 -0.62 0.6 -0.62 z M505.14000000000004 6.6 l4.4 0 c0.32 0 0.6 0.28 0.6 0.62 s-0.28 0.6 -0.6 0.6 l-4.4 0 c-0.3 0 -0.56 0.26 -0.56 0.56 l0 11.02 c0 0.32 -0.26 0.6 -0.6 0.6 s-0.62 -0.28 -0.62 -0.6 l0 -11.02 c0 -0.98 0.8 -1.78 1.78 -1.78 z M541.615 4.880000000000001 c0.8 0 1.44 0.64 1.46 1.44 l0 7.32 c0 1.76 -0.68 3.42 -1.94 4.68 c-1.28 1.28 -2.98 1.92 -4.66 1.92 c-1.7 0 -3.38 -0.64 -4.66 -1.92 c-1.26 -1.26 -1.94 -2.92 -1.94 -4.68 c0 -0.32 0.26 -0.6 0.6 -0.6 c0.32 0 0.6 0.28 0.6 0.6 c0 1.44 0.56 2.8 1.58 3.82 c2.1 2.12 5.54 2.12 7.64 0 c1.02 -1.02 1.58 -2.38 1.58 -3.82 l0 -7.3 c0 -0.14 -0.12 -0.26 -0.26 -0.26 c-0.16 0 -0.28 0.12 -0.28 0.26 l0 7.3 c0 1.3 -0.5 2.52 -1.42 3.44 s-2.14 1.42 -3.44 1.42 s-2.52 -0.5 -3.44 -1.42 s-1.42 -2.14 -1.42 -3.44 l0 -8.16 c0 -0.34 0.26 -0.6 0.58 -0.6 c0.34 0 0.6 0.26 0.6 0.6 l0 8.16 c0 0.98 0.38 1.9 1.08 2.6 s1.62 1.08 2.6 1.08 s1.9 -0.38 2.6 -1.08 c0.68 -0.7 1.08 -1.62 1.08 -2.6 l0 -7.32 c0 -0.8 0.66 -1.44 1.46 -1.44 z M563.41 4.880000000000001 l7.28 0 c2.48 0.02 4.48 2.06 4.48 4.54 c0 2.32 -1.78 4.24 -4.04 4.48 l3.62 3.6 c0.54 0.54 0.54 1.54 0 2.08 s-1.48 0.58 -2.04 0.02 c-0.52 -0.54 -2.52 -2.52 -2.52 -2.52 c-0.24 -0.24 -0.24 -0.62 0 -0.86 s0.62 -0.24 0.86 0 l2.48 2.48 c0.1 0.1 0.26 0.12 0.36 0.02 s0.12 -0.24 0 -0.36 l-4.64 -4.62 c-0.12 -0.12 -0.18 -0.26 -0.18 -0.42 c0 -0.34 0.28 -0.62 0.62 -0.62 l0.96 0 c1.82 0 3.32 -1.48 3.32 -3.3 s-1.5 -3.3 -3.32 -3.3 l-6.62 0 l0 3.3 c0 0.34 -0.28 0.6 -0.62 0.6 s-0.6 -0.26 -0.6 -0.6 l0 -3.92 c0 -0.32 0.26 -0.6 0.6 -0.6 z M570.67 6.6 c1.54 0 2.8 1.26 2.8 2.8 s-1.26 2.78 -2.8 2.78 l-3.34 0 c-1.82 0 -3.3 1.48 -3.3 3.3 l0 3.92 c0 0.32 -0.28 0.6 -0.62 0.6 s-0.6 -0.28 -0.6 -0.6 l0 -3.92 c0 -2.5 2.02 -4.52 4.52 -4.52 l3.34 0 c0.88 0 1.58 -0.7 1.58 -1.56 c0 -0.88 -0.7 -1.58 -1.58 -1.58 c-0.34 0 -0.6 -0.26 -0.6 -0.6 s0.26 -0.62 0.6 -0.62 z M598.405 4.880000000000001 l7.42 0 c0.8 0 1.46 0.66 1.46 1.46 s-0.62 1.48 -1.42 1.48 l-7.46 0 c-0.3 0 -0.56 0.24 -0.56 0.56 c0 0.3 0.26 0.56 0.56 0.56 c0.34 0 0.62 0.26 0.62 0.6 s-0.28 0.62 -0.62 0.62 c-0.98 0 -1.76 -0.8 -1.76 -1.78 s0.78 -1.78 1.76 -1.78 l7.42 0 c0.14 0 0.24 -0.12 0.24 -0.26 s-0.1 -0.24 -0.24 -0.24 l-7.42 0 c-1.26 0 -2.28 1.02 -2.28 2.28 s1.02 2.28 2.28 2.28 l5.38 0 c0.98 0 1.78 0.8 1.78 1.8 c0 0.98 -0.8 1.76 -1.78 1.76 l-5.38 0 c-1.26 0 -2.28 1.02 -2.28 2.28 s1.02 2.28 2.28 2.28 l8.26 0 c0.34 0 0.62 0.28 0.62 0.62 s-0.28 0.6 -0.62 0.6 l-8.26 0 c-1.94 0 -3.5 -1.56 -3.5 -3.5 c0 -1.92 1.56 -3.5 3.5 -3.5 l5.38 0 c0.32 0 0.56 -0.24 0.56 -0.54 c0 -0.34 -0.24 -0.58 -0.56 -0.58 l-5.38 0 c-1.92 0 -3.5 -1.58 -3.5 -3.5 c0 -1.94 1.58 -3.5 3.5 -3.5 z M598.405 14.74 l5.38 0 c0.34 0 0.62 0.26 0.62 0.6 s-0.28 0.62 -0.62 0.62 l-5.38 0 c-0.3 0 -0.56 0.24 -0.56 0.54 c0 0.32 0.26 0.56 0.56 0.56 c0.34 0 0.6 0.28 0.6 0.62 c0 0.32 -0.26 0.6 -0.6 0.6 c-0.98 0 -1.78 -0.8 -1.78 -1.78 s0.8 -1.76 1.78 -1.76 z"></path></g><g id="SvgjsG6079" featurekey="nameLeftFeature-0" transform="matrix(1.4982073834640448,0,0,1.4982073834640448,0.14982130986716538,48.07828205985234)" fill="#53643c"><path d="M7.7 4.619999999999999 c2.1 0 4.06 0.82 5.52 2.28 c0.24 0.24 0.24 0.62 0 0.86 c-0.22 0.24 -0.62 0.24 -0.84 0 c-1.26 -1.24 -2.9 -1.92 -4.68 -1.94 c-3.62 0 -6.6 2.98 -6.6 6.6 c0 3.64 2.98 6.62 6.6 6.62 c1.78 0 3.44 -0.7 4.68 -1.94 c0.14 -0.14 0.08 -0.3 0 -0.38 c-0.1 -0.1 -0.26 -0.12 -0.38 0 c-1.16 1.16 -2.68 1.76 -4.3 1.76 c-3.34 0 -6.04 -2.7 -6.04 -6.06 c0 -1.6 0.62 -3.12 1.76 -4.28 c0.24 -0.22 0.62 -0.22 0.86 0 c0.24 0.24 0.24 0.62 0 0.86 c-0.92 0.92 -1.42 2.14 -1.42 3.42 c0 2.68 2.18 4.86 4.84 4.86 c1.3 0 2.52 -0.5 3.44 -1.42 c0.62 -0.62 1.5 -0.6 2.1 0 c0.64 0.64 0.62 1.48 0 2.1 c-1.48 1.48 -3.44 2.28 -5.54 2.28 c-4.3 0 -7.8 -3.5 -7.8 -7.82 c0 -4.3 3.5 -7.8 7.8 -7.8 z M23.04 6.380000000000001 c1.62 0 3.14 0.62 4.28 1.76 c1.14 1.16 1.76 2.68 1.76 4.3 c0 0.32 -0.26 0.6 -0.6 0.6 c-0.32 0 -0.6 -0.28 -0.6 -0.6 c0 -1.3 -0.5 -2.52 -1.42 -3.44 c-0.92 -0.9 -2.14 -1.42 -3.42 -1.42 c-1.3 0 -2.52 0.52 -3.44 1.42 c-0.92 0.92 -1.42 2.14 -1.42 3.44 c0 0.8 -0.66 1.48 -1.48 1.48 s-1.48 -0.68 -1.48 -1.48 c0 -2.1 0.82 -4.06 2.28 -5.52 c3.06 -3.06 8 -3.06 11.06 0 c1.48 1.46 2.28 3.42 2.28 5.52 c0 2.08 -0.8 4.04 -2.28 5.52 s-3.44 2.28 -5.52 2.28 c-0.34 0 -0.62 -0.26 -0.62 -0.6 s0.28 -0.6 0.62 -0.6 c1.76 0 3.42 -0.7 4.66 -1.94 s1.94 -2.9 1.94 -4.66 s-0.7 -3.42 -1.94 -4.68 c-2.58 -2.56 -6.76 -2.56 -9.34 0 c-1.24 1.26 -1.92 2.92 -1.92 4.68 c0 0.18 0.1 0.3 0.28 0.3 c0.16 0 0.26 -0.1 0.26 -0.3 c0 -1.62 0.62 -3.14 1.76 -4.3 c1.14 -1.14 2.68 -1.76 4.3 -1.76 z M50.8 4.880000000000001 c1.9 0 3.44 1.54 3.44 3.44 l0 11.1 c0 0.32 -0.26 0.58 -0.6 0.58 c-0.32 0 -0.6 -0.26 -0.6 -0.58 l0 -11.1 c0 -1.24 -1 -2.24 -2.24 -2.24 c-1.22 0 -2.24 1 -2.24 2.24 l0 8.24 c0 0.96 -0.78 1.74 -1.74 1.74 s-1.74 -0.78 -1.74 -1.74 l0 -8.26 c0 -0.78 -0.42 -1.52 -1.12 -1.92 c-1.04 -0.62 -2.38 -0.24 -3.08 0.84 l-7.22 11.24 c-0.06 0.08 -0.08 0.24 0.06 0.34 c0.18 0.12 0.28 0.02 0.36 -0.1 l7.22 -11.22 c0.48 -0.72 1.48 -1.22 2.42 -0.68 c0.52 0.32 0.86 0.88 0.86 1.5 l0 8.26 c0 1.24 1.02 2.24 2.24 2.24 c1.24 0 2.24 -1 2.24 -2.24 l0 -8.24 c0 -0.34 0.28 -0.6 0.6 -0.6 c0.34 0 0.6 0.26 0.6 0.6 l0 8.24 c0 1.9 -1.54 3.44 -3.44 3.44 c-1.88 0 -3.42 -1.54 -3.42 -3.44 l0 -8.26 c-0.02 -0.22 -0.12 -0.38 -0.3 -0.46 c-0.38 -0.18 -0.66 0.08 -0.78 0.3 l-7.2 11.16 c-0.4 0.74 -1.32 0.88 -1.96 0.5 c-0.7 -0.4 -0.92 -1.28 -0.52 -1.96 l7.24 -11.26 c1.04 -1.62 3.1 -2.16 4.68 -1.24 c1.06 0.62 1.72 1.76 1.72 3 l0 8.22 c0 0.3 0.24 0.56 0.54 0.56 s0.56 -0.26 0.56 -0.56 l0 -8.24 c-0.02 -1.9 1.54 -3.44 3.42 -3.44 z M56.440000000000005 4.880000000000001 l7.28 0 c2.48 0.02 4.5 2.04 4.5 4.52 s-2.04 4.52 -4.52 4.52 l-3.36 0 c-0.86 0 -1.56 0.7 -1.56 1.58 l0 3.9 c0 0.32 -0.28 0.6 -0.62 0.6 s-0.6 -0.28 -0.6 -0.6 l0 -3.9 c0 -1.54 1.24 -2.8 2.78 -2.8 l3.36 0 c1.82 0 3.3 -1.48 3.3 -3.3 s-1.48 -3.3 -3.32 -3.3 l-6.62 0 l0 3.3 c0 0.34 -0.28 0.6 -0.62 0.6 c-0.32 0 -0.6 -0.26 -0.6 -0.6 l0 -3.92 c0 -0.32 0.28 -0.6 0.6 -0.6 z M63.7 6.6 c1.54 0 2.8 1.26 2.8 2.8 s-1.26 2.78 -2.8 2.78 l-3.34 0 c-1.82 0 -3.3 1.48 -3.3 3.3 l0 3.92 c0 0.32 -0.28 0.6 -0.62 0.6 c-0.32 0 -0.6 -0.28 -0.6 -0.6 l0 -3.92 c0 -2.5 2.02 -4.52 4.52 -4.52 l3.36 0 c0.86 0 1.56 -0.7 1.56 -1.56 c0 -0.88 -0.7 -1.58 -1.58 -1.58 c-0.32 0 -0.6 -0.26 -0.6 -0.6 s0.28 -0.62 0.6 -0.62 z M81.56 4.880000000000001 c0.8 0 1.44 0.64 1.46 1.44 l0 7.32 c0 1.76 -0.68 3.42 -1.94 4.68 c-1.28 1.28 -2.98 1.92 -4.66 1.92 c-1.7 0 -3.38 -0.64 -4.66 -1.92 c-1.26 -1.26 -1.94 -2.92 -1.94 -4.68 c0 -0.32 0.26 -0.6 0.6 -0.6 c0.32 0 0.6 0.28 0.6 0.6 c0 1.44 0.56 2.8 1.58 3.82 c2.1 2.12 5.54 2.12 7.64 0 c1.02 -1.02 1.58 -2.38 1.58 -3.82 l0 -7.3 c0 -0.14 -0.12 -0.26 -0.26 -0.26 c-0.16 0 -0.28 0.12 -0.28 0.26 l0 7.3 c0 1.3 -0.5 2.52 -1.42 3.44 s-2.14 1.42 -3.44 1.42 s-2.52 -0.5 -3.44 -1.42 s-1.42 -2.14 -1.42 -3.44 l0 -8.16 c0 -0.34 0.26 -0.6 0.58 -0.6 c0.34 0 0.6 0.26 0.6 0.6 l0 8.16 c0 0.98 0.38 1.9 1.08 2.6 s1.62 1.08 2.6 1.08 s1.9 -0.38 2.6 -1.08 c0.68 -0.7 1.08 -1.62 1.08 -2.6 l0 -7.32 c0 -0.8 0.66 -1.44 1.46 -1.44 z M85.22 4.880000000000001 l12.86 0 c0.32 0 0.6 0.28 0.6 0.6 c0 0.34 -0.28 0.62 -0.6 0.62 l-12.86 0 c-0.32 0 -0.6 -0.28 -0.6 -0.62 c0 -0.32 0.28 -0.6 0.6 -0.6 z M85.22 6.6 l4.4 0 c0.98 0 1.78 0.8 1.78 1.78 l0 11.02 c0 0.32 -0.28 0.6 -0.62 0.6 c-0.32 0 -0.6 -0.28 -0.6 -0.6 l0 -11.02 c0 -0.3 -0.26 -0.56 -0.56 -0.56 l-4.4 0 c-0.32 0 -0.6 -0.26 -0.6 -0.6 s0.28 -0.62 0.6 -0.62 z M93.68 6.6 l4.4 0 c0.32 0 0.6 0.28 0.6 0.62 s-0.28 0.6 -0.6 0.6 l-4.4 0 c-0.3 0 -0.56 0.26 -0.56 0.56 l0 11.02 c0 0.32 -0.26 0.6 -0.6 0.6 s-0.62 -0.28 -0.62 -0.6 l0 -11.02 c0 -0.98 0.8 -1.78 1.78 -1.78 z M103.78 4.880000000000001 l7.42 0 c0.8 0 1.46 0.66 1.46 1.46 s-0.62 1.48 -1.42 1.48 l-7.46 0 c-0.3 0 -0.56 0.24 -0.56 0.56 c0 0.3 0.26 0.56 0.56 0.56 c0.34 0 0.62 0.26 0.62 0.6 s-0.28 0.62 -0.62 0.62 c-0.98 0 -1.76 -0.8 -1.76 -1.78 s0.78 -1.78 1.76 -1.78 l7.42 0 c0.14 0 0.24 -0.12 0.24 -0.26 s-0.1 -0.24 -0.24 -0.24 l-7.42 0 c-1.26 0 -2.28 1.02 -2.28 2.28 s1.02 2.28 2.28 2.28 l5.38 0 c0.98 0 1.78 0.8 1.78 1.8 c0 0.98 -0.8 1.76 -1.78 1.76 l-5.38 0 c-1.26 0 -2.28 1.02 -2.28 2.28 s1.02 2.28 2.28 2.28 l8.26 0 c0.34 0 0.62 0.28 0.62 0.62 s-0.28 0.6 -0.62 0.6 l-8.26 0 c-1.94 0 -3.5 -1.56 -3.5 -3.5 c0 -1.92 1.56 -3.5 3.5 -3.5 l5.38 0 c0.32 0 0.56 -0.24 0.56 -0.54 c0 -0.34 -0.24 -0.58 -0.56 -0.58 l-5.38 0 c-1.92 0 -3.5 -1.58 -3.5 -3.5 c0 -1.94 1.58 -3.5 3.5 -3.5 z M103.78 14.74 l5.38 0 c0.34 0 0.62 0.26 0.62 0.6 s-0.28 0.62 -0.62 0.62 l-5.38 0 c-0.3 0 -0.56 0.24 -0.56 0.54 c0 0.32 0.26 0.56 0.56 0.56 c0.34 0 0.6 0.28 0.6 0.62 c0 0.32 -0.26 0.6 -0.6 0.6 c-0.98 0 -1.78 -0.8 -1.78 -1.78 s0.8 -1.76 1.78 -1.76 z"></path></g><g id="SvgjsG6080" featurekey="nameRightFeature-0" transform="matrix(1.559493256748158,0,0,1.559493256748158,179.9237497216453,47.21213985539012)" fill="#33402a"><path d="M16.4 16.96 q0.3 0 0.5 0.21 t0.2 0.51 l0 1.46 q0 0.28 -0.2 0.49 t-0.5 0.21 l-9.88 0 q-0.28 0 -0.49 -0.21 t-0.21 -0.49 l0 -1.46 q0 -0.3 0.21 -0.51 t0.49 -0.21 l9.88 0 z M6.52 13.86 q-0.28 0 -0.49 -0.21 t-0.21 -0.49 l0 -1.5 q0 -0.28 0.21 -0.49 t0.49 -0.21 l8.98 0 q0.3 0 0.51 0.21 t0.21 0.49 l0 1.5 q0 0.28 -0.21 0.49 t-0.51 0.21 l-8.98 0 z M16.4 5 q0.3 0 0.5 0.21 t0.2 0.49 l0 1.46 q0 0.3 -0.2 0.51 t-0.5 0.21 l-9.88 0 q-0.28 0 -0.49 -0.21 t-0.21 -0.51 l0 -1.46 q0 -0.28 0.21 -0.49 t0.49 -0.21 l9.88 0 z M29.300000000000004 12.42 q0.86 0.54 1.31 1.32 t0.45 1.74 q0 2.26 -1.72 3.46 q-1.16 0.84 -3.14 1.06 l-0.08 0 q-0.28 0 -0.46 -0.18 q-0.24 -0.22 -0.24 -0.52 l0 -1.44 q0 -0.26 0.18 -0.46 t0.44 -0.24 q0.94 -0.1 1.46 -0.44 q0.4 -0.24 0.54 -0.62 q0.08 -0.22 0.08 -0.56 q0 -0.22 -0.08 -0.38 t-0.28 -0.3 q-0.58 -0.4 -1.5 -0.68 l-0.32 -0.1 q-1 -0.28 -1.84 -0.46 q-0.18 -0.04 -0.58 -0.14 l-0.22 -0.06 q-0.72 -0.18 -1.52 -0.5 q-1.18 -0.5 -1.94 -1.26 q-0.88 -0.88 -0.88 -2.32 q0 -1.98 1.52 -3.22 q1.04 -0.88 2.92 -1.12 q0.32 -0.04 0.55 0.18 t0.23 0.52 l0 1.44 q0 0.26 -0.16 0.46 t-0.41 0.23 t-0.51 0.11 q-0.58 0.22 -0.82 0.43 t-0.34 0.43 q-0.1 0.34 -0.1 0.64 q0 0.16 0.18 0.34 q0.28 0.28 0.82 0.5 q0.24 0.1 0.84 0.3 l2.5 0.62 l0.12 0.04 q0.94 0.26 1.36 0.4 q0.94 0.32 1.64 0.78 z M25.96 7.9 q-0.24 -0.06 -0.39 -0.25 t-0.15 -0.45 l0 -1.46 q0 -0.32 0.26 -0.54 q0.1 -0.1 0.26 -0.13 t0.3 -0.01 q1.76 0.28 2.86 1.2 q1.5 1.24 1.6 3.16 q0.02 0.28 -0.19 0.51 t-0.51 0.23 l-1.56 0 q-0.26 0 -0.46 -0.18 t-0.22 -0.44 q-0.08 -0.52 -0.34 -0.86 q-0.42 -0.5 -1.3 -0.76 q-0.06 0 -0.08 -0.02 l-0.08 0 z M23.62 17.08 q0.24 0.04 0.4 0.24 t0.16 0.44 l0 1.48 q0 0.32 -0.24 0.54 q-0.2 0.16 -0.46 0.16 l-0.1 0 q-1.86 -0.28 -3.06 -1.22 q-1.56 -1.24 -1.76 -3.46 q-0.04 -0.32 0.18 -0.55 t0.52 -0.23 l1.58 0 q0.28 0 0.48 0.19 t0.22 0.47 q0.06 1 0.98 1.54 q0.42 0.24 1.1 0.4 z M34.800000000000004 5 q0.3 0 0.51 0.21 t0.21 0.51 l0 1.46 q0 0.3 -0.21 0.51 t-0.51 0.21 l-2.06 0 q-0.28 0 -0.49 -0.21 t-0.21 -0.51 l0 -1.46 q0 -0.3 0.21 -0.51 t0.49 -0.21 l2.06 0 z M43.74 5 q0.28 0 0.49 0.21 t0.21 0.51 l0 1.46 q0 0.3 -0.21 0.51 t-0.49 0.21 l-4.02 0 l0 11.36 q0 0.28 -0.21 0.49 t-0.49 0.21 l-1.54 0 q-0.3 0 -0.51 -0.21 t-0.21 -0.49 l0 -13.54 q0 -0.3 0.21 -0.51 t0.51 -0.21 l6.26 0 z M59.5 18.86 q0.14 0.32 -0.07 0.65 t-0.57 0.33 l-13.32 0 q-0.18 0 -0.34 -0.09 t-0.24 -0.23 q-0.22 -0.32 -0.06 -0.66 l0.62 -1.46 q0.08 -0.2 0.26 -0.32 t0.38 -0.12 l9.32 0 l-3.28 -7.84 l-2.68 6.4 q-0.08 0.2 -0.25 0.31 t-0.39 0.11 l-1.68 0 q-0.38 0 -0.6 -0.32 q-0.08 -0.14 -0.1 -0.32 t0.04 -0.34 l4.06 -9.52 q0.08 -0.2 0.25 -0.32 t0.39 -0.12 l1.92 0 q0.22 0 0.39 0.12 t0.25 0.32 z M62.699999999999996 5 q0.3 0 0.51 0.21 t0.21 0.51 l0 1.46 q0 0.3 -0.21 0.51 t-0.51 0.21 l-2.06 0 q-0.28 0 -0.49 -0.21 t-0.21 -0.51 l0 -1.46 q0 -0.3 0.21 -0.51 t0.49 -0.21 l2.06 0 z M71.64 5 q0.28 0 0.49 0.21 t0.21 0.51 l0 1.46 q0 0.3 -0.21 0.51 t-0.49 0.21 l-4.02 0 l0 11.36 q0 0.28 -0.21 0.49 t-0.49 0.21 l-1.54 0 q-0.3 0 -0.51 -0.21 t-0.21 -0.49 l0 -13.54 q0 -0.3 0.21 -0.51 t0.51 -0.21 l6.26 0 z M84.82000000000001 16.96 q0.3 0 0.5 0.21 t0.2 0.51 l0 1.46 q0 0.28 -0.2 0.49 t-0.5 0.21 l-9.88 0 q-0.28 0 -0.49 -0.21 t-0.21 -0.49 l0 -1.46 q0 -0.3 0.21 -0.51 t0.49 -0.21 l9.88 0 z M74.94 13.86 q-0.28 0 -0.49 -0.21 t-0.21 -0.49 l0 -1.5 q0 -0.28 0.21 -0.49 t0.49 -0.21 l8.98 0 q0.3 0 0.51 0.21 t0.21 0.49 l0 1.5 q0 0.28 -0.21 0.49 t-0.51 0.21 l-8.98 0 z M84.82000000000001 5 q0.3 0 0.5 0.21 t0.2 0.49 l0 1.46 q0 0.3 -0.2 0.51 t-0.5 0.21 l-9.88 0 q-0.28 0 -0.49 -0.21 t-0.21 -0.51 l0 -1.46 q0 -0.28 0.21 -0.49 t0.49 -0.21 l9.88 0 z M97.72000000000001 12.42 q0.86 0.54 1.31 1.32 t0.45 1.74 q0 2.26 -1.72 3.46 q-1.16 0.84 -3.14 1.06 l-0.08 0 q-0.28 0 -0.46 -0.18 q-0.24 -0.22 -0.24 -0.52 l0 -1.44 q0 -0.26 0.18 -0.46 t0.44 -0.24 q0.94 -0.1 1.46 -0.44 q0.4 -0.24 0.54 -0.62 q0.08 -0.22 0.08 -0.56 q0 -0.22 -0.08 -0.38 t-0.28 -0.3 q-0.58 -0.4 -1.5 -0.68 l-0.32 -0.1 q-1 -0.28 -1.84 -0.46 q-0.18 -0.04 -0.58 -0.14 l-0.22 -0.06 q-0.72 -0.18 -1.52 -0.5 q-1.18 -0.5 -1.94 -1.26 q-0.88 -0.88 -0.88 -2.32 q0 -1.98 1.52 -3.22 q1.04 -0.88 2.92 -1.12 q0.32 -0.04 0.55 0.18 t0.23 0.52 l0 1.44 q0 0.26 -0.16 0.46 t-0.41 0.23 t-0.51 0.11 q-0.58 0.22 -0.82 0.43 t-0.34 0.43 q-0.1 0.34 -0.1 0.64 q0 0.16 0.18 0.34 q0.28 0.28 0.82 0.5 q0.24 0.1 0.84 0.3 l2.5 0.62 l0.12 0.04 q0.94 0.26 1.36 0.4 q0.94 0.32 1.64 0.78 z M94.38000000000001 7.9 q-0.24 -0.06 -0.39 -0.25 t-0.15 -0.45 l0 -1.46 q0 -0.32 0.26 -0.54 q0.1 -0.1 0.26 -0.13 t0.3 -0.01 q1.76 0.28 2.86 1.2 q1.5 1.24 1.6 3.16 q0.02 0.28 -0.19 0.51 t-0.51 0.23 l-1.56 0 q-0.26 0 -0.46 -0.18 t-0.22 -0.44 q-0.08 -0.52 -0.34 -0.86 q-0.42 -0.5 -1.3 -0.76 q-0.06 0 -0.08 -0.02 l-0.08 0 z M92.04 17.08 q0.24 0.04 0.4 0.24 t0.16 0.44 l0 1.48 q0 0.32 -0.24 0.54 q-0.2 0.16 -0.46 0.16 l-0.1 0 q-1.86 -0.28 -3.06 -1.22 q-1.56 -1.24 -1.76 -3.46 q-0.04 -0.32 0.18 -0.55 t0.52 -0.23 l1.58 0 q0.28 0 0.48 0.19 t0.22 0.47 q0.06 1 0.98 1.54 q0.42 0.24 1.1 0.4 z"></path></g></svg>